<?xml version="1.0" encoding="UTF-8" standalone="no"?>
<!-- Generator: Adobe Illustrator 19.0.0, SVG Export Plug-In . SVG Version: 6.00 Build 0)  -->

<svg
   version="1.1"
   id="Capa_1"
   x="0px"
   y="0px"
   viewBox="0 0 480 480"
   style="enable-background:new 0 0 480 480;"
   xml:space="preserve"
   inkscape:version="1.1.1 (3bf5ae0d25, 2021-09-20)"
   sodipodi:docname="HeadOfOffice.svg"
   xmlns:inkscape="http://www.inkscape.org/namespaces/inkscape"
   xmlns:sodipodi="http://sodipodi.sourceforge.net/DTD/sodipodi-0.dtd"
   xmlns:xlink="http://www.w3.org/1999/xlink"
   xmlns="http://www.w3.org/2000/svg"
   xmlns:svg="http://www.w3.org/2000/svg"
   xmlns:rdf="http://www.w3.org/1999/02/22-rdf-syntax-ns#"
   xmlns:cc="http://creativecommons.org/ns#"
   xmlns:dc="http://purl.org/dc/elements/1.1/"><metadata
   id="metadata49"><rdf:RDF><cc:Work
       rdf:about=""><dc:format>image/svg+xml</dc:format><dc:type
         rdf:resource="http://purl.org/dc/dcmitype/StillImage" /></cc:Work></rdf:RDF></metadata><defs
   id="defs47"><linearGradient
     inkscape:collect="always"
     id="linearGradient4852"><stop
       style="stop-color:#00c7ff;stop-opacity:1"
       offset="0"
       id="stop4854" /><stop
       style="stop-color:#001e9e;stop-opacity:1"
       offset="1"
       id="stop4856" /></linearGradient><linearGradient
     inkscape:collect="always"
     xlink:href="#linearGradient4852"
     id="linearGradient5345"
     gradientUnits="userSpaceOnUse"
     x1="130.575"
     y1="70.102997"
     x2="408"
     y2="480"
     gradientTransform="matrix(0.9,0,0,0.9,24,23.999975)" /></defs><sodipodi:namedview
   pagecolor="#ffffff"
   bordercolor="#666666"
   borderopacity="1"
   objecttolerance="10"
   gridtolerance="10"
   guidetolerance="10"
   inkscape:pageopacity="0"
   inkscape:pageshadow="2"
   inkscape:window-width="1394"
   inkscape:window-height="911"
   id="namedview45"
   showgrid="false"
   inkscape:snap-smooth-nodes="true"
   inkscape:object-nodes="true"
   inkscape:zoom="0.69532167"
   inkscape:cx="353.074"
   inkscape:cy="413.47769"
   inkscape:window-x="448"
   inkscape:window-y="90"
   inkscape:window-maximized="0"
   inkscape:current-layer="Capa_1"
   inkscape:pagecheckerboard="0" /><path
   id="path7"
   style="fill:url(#linearGradient5345);fill-opacity:1;stroke-width:0.9"
   d="M 251.92969 24 C 224.97289 23.9208 199.02276 34.237381 179.47656 52.800781 L 175.8125 52.800781 C 156.8729 52.800781 141.51848 68.152197 141.51758 87.091797 C 141.51758 96.187197 145.1302 104.91235 151.5625 111.34375 L 168 127.78125 L 168 241.69922 L 163.88867 245.94141 C 110.98307 300.19612 81.442109 373.02167 81.599609 448.80078 C 81.599609 452.77698 84.824581 456 88.800781 456 L 391.19922 456 C 395.17542 456 398.40039 452.77698 398.40039 448.80078 C 398.55699 373.02258 369.01934 300.19776 316.11914 245.93945 L 312 241.69922 L 312 142.18164 L 325.63672 128.55273 C 345.82012 108.38193 345.83186 75.667775 325.66016 55.484375 C 323.97536 53.797775 322.17514 52.231169 320.27344 50.792969 L 326.0332 33.511719 C 327.3094 29.746119 325.29189 25.657959 321.52539 24.380859 C 320.77749 24.127059 319.99032 23.9991 319.19922 24 L 251.92969 24 z M 290.96094 91.017578 C 295.29174 99.211178 297.56991 108.33231 297.59961 117.59961 L 297.59961 234.81641 L 240 254.01172 L 182.40039 234.81641 L 182.40039 127.32812 L 207.14648 96.367188 L 248.09961 100.91797 C 262.57431 102.49657 277.17059 99.319187 289.67969 91.867188 C 290.11889 91.600786 290.52894 91.291178 290.96094 91.017578 z M 303.83203 251.19922 C 302.55003 287.29822 293.00092 322.62027 275.91992 354.44727 L 265.32031 372.27148 C 257.81531 383.71548 249.344 394.49709 240 404.49609 C 230.636 394.47609 222.14981 383.67022 214.63281 372.19922 C 214.17965 371.47765 204.08008 354.44922 204.08008 354.44922 C 187.00008 322.62122 177.45097 287.29917 176.16797 251.20117 L 240 271.29688 L 303.83203 251.19922 z M 240 271.29688 L 225.5918 370.52734 C 225.3438 371.12334 225.02181 371.68422 224.63281 372.19922 L 240 404.49609 L 255.32031 372.27148 C 254.94231 371.73148 254.6362 371.14534 254.4082 370.52734 L 240 271.29688 z " /><text
   xml:space="preserve"
   style="font-style:normal;font-weight:normal;line-height:0%;font-family:sans-serif;letter-spacing:0px;word-spacing:0px;fill:#000000;fill-opacity:1;stroke:none;stroke-width:1px;stroke-linecap:butt;stroke-linejoin:miter;stroke-opacity:1"
   x="-0.27851459"
   y="531.54462"
   id="text5297"><tspan
     sodipodi:role="line"
     id="tspan5299"
     x="-0.27851459"
     y="531.54462"
     style="font-size:15px;line-height:1.25">Forked from https://www.flaticon.com/free-icon/head_865020</tspan><tspan
     sodipodi:role="line"
     x="-0.27851459"
     y="550.29462"
     id="tspan5301"
     style="font-size:15px;line-height:1.25"> </tspan><tspan
     sodipodi:role="line"
     x="-0.27851459"
     y="569.04462"
     id="tspan5335"
     style="font-size:15px;line-height:1.25">&quot;Icon based on an image of pongsakornRed from Flaticon.com&quot;</tspan></text>
</svg>
